<svg width="244" height="71" viewBox="0 0 244 71" fill="none" xmlns="http://www.w3.org/2000/svg">
<path d="M66.3599 29.9574C66.7034 30.2537 67.222 30.2154 67.5183 29.8719C67.8145 29.5284 67.7763 29.0098 67.4328 28.7135L66.3599 29.9574ZM43.8994 66.2948C44.353 66.2948 44.7208 65.9271 44.7208 65.4734C44.7208 65.0199 44.353 64.6521 43.8994 64.6521V66.2948ZM2.19104 27.611L1.66446 26.9807L2.19104 27.611ZM67.4328 28.7135L35.636 1.28878L34.5631 2.53266L66.3599 29.9574L67.4328 28.7135ZM32.4469 1.26371L1.66446 26.9807L2.71762 28.2413L33.5001 2.52431L32.4469 1.26371ZM0.780244 28.8716V63.8308H2.42288V28.8716H0.780244ZM3.2442 66.2948H43.8994V64.6521H3.2442V66.2948ZM0.780244 63.8308C0.780244 65.1916 1.8834 66.2948 3.2442 66.2948V64.6521C2.7906 64.6521 2.42288 64.2844 2.42288 63.8308H0.780244ZM1.66446 26.9807C1.1041 27.4489 0.780244 28.1414 0.780244 28.8716H2.42288C2.42288 28.6282 2.53083 28.3974 2.71762 28.2413L1.66446 26.9807ZM35.636 1.28878C34.7224 0.500863 33.3727 0.490249 32.4469 1.26371L33.5001 2.52431C33.8087 2.26649 34.2586 2.27002 34.5631 2.53266L35.636 1.28878Z" fill="#4F95FF"/>
<path d="M91.4868 32.6125H86.9647L81.5121 41.8056L76.0595 32.6125H71.5374V45.6392H74.8871V36.7066L80.3025 45.6392H82.7217L88.1371 36.7066V45.6392H91.4868V32.6125ZM108.624 34.6781L104.343 43.7224L99.6538 34.6781H96.118L101.794 45.6392H103.432L101.217 50.2915H104.734L112.141 34.6781H108.624ZM120.422 42.8291V32.6125H117.073V45.6392H130.471V42.8291H120.422ZM155.552 40.168C155.552 44.1876 158.604 45.8253 163.145 45.8253C167.239 45.8253 170.123 44.4854 170.645 41.2659H167.388C166.96 42.6802 165.452 43.1641 163.145 43.1641C160.409 43.1641 158.734 42.4383 158.734 40.168C158.734 37.879 160.409 37.1532 163.145 37.1532C165.452 37.1532 166.96 37.6371 167.388 39.0514H170.645C170.123 35.8319 167.239 34.492 163.145 34.492C158.604 34.492 155.552 36.1297 155.552 40.168ZM182.733 34.492C180.444 34.492 178.248 34.9015 176.015 35.6272L177.15 37.9534C179.402 37.2835 181.151 37.1532 182.584 37.1532C184.073 37.1532 186.753 37.3207 186.753 39.405C185.32 38.9211 183.589 38.6234 181.709 38.6234C178.23 38.6234 175.103 39.5166 175.103 42.3639C175.103 44.8389 177.02 45.8253 180.09 45.8253C182.677 45.8253 184.817 45.2298 186.753 44.2807V45.6392H189.954V40.1121C189.916 35.9622 187.311 34.492 182.733 34.492ZM186.753 42.2336C185.115 42.9408 182.733 43.4805 181.002 43.4805C179.346 43.4805 178.285 43.3874 178.285 42.2336C178.285 41.117 179.718 40.7076 182.1 40.7076C184.129 40.7076 185.636 41.024 186.753 41.3776V42.2336ZM195.167 30.7515V45.6392H198.349V30.7515H195.167Z" fill="#343434"/>
<path d="M143.012 45.8253C147.535 45.8253 150.605 44.1876 150.605 40.168C150.605 36.1297 147.535 34.492 143.012 34.492C138.472 34.492 135.42 36.1297 135.42 40.168C135.42 44.1876 138.472 45.8253 143.012 45.8253ZM143.012 43.1641C140.054 43.1641 138.602 42.4383 138.602 40.168C138.602 37.879 140.054 37.1532 143.012 37.1532C145.953 37.1532 147.404 37.879 147.404 40.168C147.404 42.4383 145.953 43.1641 143.012 43.1641Z" fill="#4F95FF"/>
<g clip-path="url(#clip0_1805_849)">
<path d="M27.6897 55.148L27.1503 57.3529C25.5323 57.9915 24.2397 58.4776 23.2772 58.8118C22.3137 59.1471 21.1942 59.3138 19.9186 59.3138C17.9597 59.3138 16.4361 58.834 15.3494 57.8808C14.2627 56.9239 13.7192 55.7113 13.7192 54.2402C13.7192 53.6707 13.7587 53.085 13.8407 52.4882C13.9233 51.8907 14.0548 51.2178 14.2347 50.4657L16.2569 43.3083C16.4368 42.623 16.5897 41.9736 16.7122 41.3595C16.8364 40.7492 16.8962 40.1877 16.8962 39.6823C16.8962 38.7682 16.707 38.1289 16.3302 37.7694C15.9535 37.411 15.2346 37.229 14.1672 37.229C13.6445 37.229 13.1072 37.3127 12.5595 37.4747C12.0094 37.6373 11.5393 37.7943 11.1445 37.9403L11.6853 35.7337C13.01 35.1944 14.2762 34.7325 15.4875 34.3492C16.6987 33.9648 17.8431 33.7725 18.9257 33.7725C20.871 33.7725 22.3722 34.2426 23.4264 35.183C24.4805 36.124 25.0074 37.3439 25.0074 38.8471C25.0074 39.1581 24.9728 39.7061 24.8984 40.4894C24.8258 41.2744 24.6905 41.9937 24.4933 42.6479L22.4798 49.7765C22.3148 50.3491 22.1663 51.0037 22.0373 51.7402C21.9041 52.472 21.8404 53.031 21.8404 53.4061C21.8404 54.3526 22.0515 54.9989 22.4746 55.3425C22.9008 55.686 23.635 55.8569 24.6777 55.8569C25.1673 55.8569 25.7243 55.7701 26.3432 55.5995C26.9604 55.4289 27.4105 55.2791 27.6897 55.148Z" fill="#4F95FF"/>
<path d="M26.663 29.2158C27.6037 28.3437 28.0718 27.2829 28.0718 26.0409C28.0718 24.8017 27.6044 23.7388 26.663 22.8556C25.7248 21.9748 24.5938 21.533 23.2715 21.533C21.9451 21.533 20.8096 21.9737 19.8624 22.8556C18.9151 23.7388 18.4404 24.8013 18.4404 26.0409C18.4404 27.2829 18.9151 28.3433 19.8624 29.2158C20.8113 30.0911 21.9447 30.5291 23.2715 30.5291C24.5941 30.5291 25.7248 30.0911 26.663 29.2158Z" fill="#4F95FF"/>
</g>
<path d="M47.3225 53.2801C53.6512 46.9514 61.8208 43.3845 61.8208 35.675C61.8208 31.4175 58.3688 27.9656 54.2265 27.9656C51.2348 27.9656 48.5883 29.6916 47.4376 32.338C46.0568 29.6916 43.4103 27.9656 40.4186 27.9656C36.2762 27.9656 32.8242 31.4175 32.8242 35.675C32.8242 43.4995 41.4542 47.0665 47.3225 53.2801Z" fill="#F3705A"/>
<path d="M49.9686 54.3157C48.3577 55.8116 46.1714 55.8116 44.5605 54.3157C45.1358 53.5102 46.2865 53.05 46.2865 52.0144C46.9769 52.0144 47.5522 52.0144 48.2426 52.0144C48.2426 52.9349 49.3932 53.5102 49.9686 54.3157Z" fill="#F3705A"/>
<path d="M58.0225 32.453C58.943 33.4886 59.1732 34.6393 58.7129 34.9845C58.2526 35.4448 57.102 34.9845 56.2965 33.9489C55.376 32.9133 55.1458 31.7626 55.6061 31.4174C56.0664 30.9571 57.102 31.4174 58.0225 32.453Z" fill="white"/>
<path d="M48.4727 52.7046H46.1714C45.9413 52.7046 45.8262 52.5895 45.8262 52.3594C45.8262 52.1293 45.9413 52.0142 46.1714 52.0142H48.4727C48.7028 52.0142 48.8179 52.1293 48.8179 52.3594C48.933 52.4745 48.7028 52.7046 48.4727 52.7046Z" fill="#415A6B"/>
<path d="M45.1362 55.2349C45.0211 55.2349 44.791 55.1198 44.791 55.0048C44.791 54.7747 44.9061 54.6596 45.0211 54.5445C45.3663 54.4294 45.5964 54.3144 45.7115 53.739C45.8266 52.9335 46.632 52.2431 46.7471 52.1281C46.8622 52.013 47.0923 52.013 47.2074 52.2432C47.3225 52.3583 47.3225 52.5884 47.0923 52.7035C46.8622 52.8186 46.4019 53.2788 46.2868 53.7391C46.2868 54.6596 45.9416 55.0048 45.1362 55.2349Z" fill="#415A6B"/>
<path d="M49.1635 60.299C47.2075 56.7319 47.8979 52.3595 48.0128 52.3595V52.2444H47.3225C47.2074 52.5896 46.517 56.962 48.5881 60.6442C50.5442 64.0962 47.6677 70.4248 47.5525 70.5398C47.4374 70.7699 47.5525 71.0001 47.7826 71.0001H47.8977C48.0128 71.0001 48.1278 70.885 48.2429 70.77C48.358 70.655 51.3498 64.0962 49.1635 60.299Z" fill="#415A6B"/>
<path d="M74.953 61.2843C74.2179 61.2843 73.5061 61.1726 72.8176 60.9493C72.1383 60.7167 71.6033 60.4189 71.2125 60.056L71.7289 58.9674C72.1011 59.3023 72.5756 59.5768 73.1525 59.7908C73.7387 59.9956 74.3389 60.0979 74.953 60.0979C75.7625 60.0979 76.3673 59.963 76.7674 59.6931C77.1675 59.414 77.3676 59.0465 77.3676 58.5905C77.3676 58.2556 77.2559 57.9857 77.0326 57.781C76.8186 57.567 76.5488 57.4042 76.2231 57.2925C75.9067 57.1809 75.4555 57.0552 74.8693 56.9157C74.1342 56.7389 73.5387 56.5621 73.0827 56.3853C72.6361 56.2085 72.25 55.9387 71.9243 55.5758C71.6079 55.2036 71.4498 54.7058 71.4498 54.0824C71.4498 53.5613 71.5847 53.0914 71.8545 52.6727C72.1337 52.254 72.5524 51.919 73.1107 51.6678C73.6689 51.4166 74.3621 51.2909 75.1903 51.2909C75.7672 51.2909 76.3348 51.3654 76.893 51.5143C77.4513 51.6631 77.9305 51.8771 78.3306 52.1563L77.87 53.2729C77.4606 53.0123 77.0233 52.8169 76.5581 52.6867C76.0928 52.5471 75.6369 52.4773 75.1903 52.4773C74.3994 52.4773 73.8039 52.6215 73.4038 52.91C73.013 53.1984 72.8176 53.5706 72.8176 54.0265C72.8176 54.3615 72.9292 54.636 73.1525 54.85C73.3758 55.0547 73.6503 55.2176 73.976 55.3385C74.311 55.4502 74.7622 55.5711 75.3298 55.7014C76.0649 55.8782 76.6558 56.055 77.1024 56.2318C77.549 56.4086 77.9305 56.6784 78.2469 57.0413C78.5726 57.4042 78.7354 57.8927 78.7354 58.5068C78.7354 59.0186 78.5958 59.4884 78.3167 59.9165C78.0375 60.3352 77.6142 60.6701 77.0466 60.9214C76.479 61.1633 75.7811 61.2843 74.953 61.2843ZM90.3211 60.7399C90.1257 60.9074 89.8838 61.0377 89.5954 61.1307C89.3069 61.2145 89.0092 61.2564 88.7021 61.2564C87.9577 61.2564 87.3808 61.0563 86.9714 60.6562C86.562 60.2561 86.3573 59.6838 86.3573 58.9395V54.8779H85.1012V53.7753H86.3573V52.1563H87.6972V53.7753H89.8187V54.8779H87.6972V58.8836C87.6972 59.2837 87.7949 59.5908 87.9903 59.8048C88.195 60.0188 88.4834 60.1258 88.8556 60.1258C89.265 60.1258 89.614 60.0095 89.9024 59.7769L90.3211 60.7399ZM100.447 61.2564C99.7118 61.2564 99.0511 61.0935 98.4649 60.7678C97.8787 60.4422 97.4181 59.9956 97.0832 59.428C96.7575 58.8511 96.5947 58.1997 96.5947 57.474C96.5947 56.7482 96.7575 56.1015 97.0832 55.5339C97.4181 54.957 97.8787 54.5104 98.4649 54.194C99.0511 53.8684 99.7118 53.7055 100.447 53.7055C101.182 53.7055 101.838 53.8684 102.415 54.194C103.001 54.5104 103.457 54.957 103.783 55.5339C104.118 56.1015 104.285 56.7482 104.285 57.474C104.285 58.1997 104.118 58.8511 103.783 59.428C103.457 59.9956 103.001 60.4422 102.415 60.7678C101.838 61.0935 101.182 61.2564 100.447 61.2564ZM100.447 60.0839C100.921 60.0839 101.345 59.9769 101.717 59.7629C102.098 59.5396 102.396 59.2326 102.61 58.8418C102.824 58.4417 102.931 57.9857 102.931 57.474C102.931 56.9622 102.824 56.5109 102.61 56.1201C102.396 55.72 102.098 55.413 101.717 55.1989C101.345 54.9849 100.921 54.8779 100.447 54.8779C99.9723 54.8779 99.5443 54.9849 99.1628 55.1989C98.7906 55.413 98.4928 55.72 98.2695 56.1201C98.0555 56.5109 97.9485 56.9622 97.9485 57.474C97.9485 57.9857 98.0555 58.4417 98.2695 58.8418C98.4928 59.2326 98.7906 59.5396 99.1628 59.7629C99.5443 59.9769 99.9723 60.0839 100.447 60.0839ZM113.005 55.0175C113.238 54.5895 113.582 54.2638 114.038 54.0405C114.494 53.8172 115.047 53.7055 115.699 53.7055V55.0035C115.624 54.9942 115.522 54.9896 115.392 54.9896C114.666 54.9896 114.094 55.2083 113.675 55.6456C113.266 56.0736 113.061 56.6877 113.061 57.4879V61.1726H111.721V53.7753H113.005V55.0175ZM129.55 57.5158C129.55 57.6182 129.541 57.7531 129.522 57.9206H123.521C123.605 58.5719 123.888 59.0976 124.372 59.4977C124.865 59.8885 125.475 60.0839 126.201 60.0839C127.085 60.0839 127.796 59.7862 128.336 59.1907L129.076 60.056C128.741 60.4468 128.322 60.7446 127.82 60.9493C127.326 61.154 126.773 61.2564 126.159 61.2564C125.377 61.2564 124.684 61.0982 124.079 60.7818C123.474 60.4561 123.004 60.0049 122.669 59.428C122.344 58.8511 122.181 58.1997 122.181 57.474C122.181 56.7575 122.339 56.1108 122.655 55.5339C122.981 54.957 123.423 54.5104 123.981 54.194C124.549 53.8684 125.186 53.7055 125.894 53.7055C126.601 53.7055 127.229 53.8684 127.778 54.194C128.336 54.5104 128.769 54.957 129.076 55.5339C129.392 56.1108 129.55 56.7715 129.55 57.5158ZM125.894 54.8361C125.252 54.8361 124.712 55.0315 124.275 55.4223C123.847 55.8131 123.595 56.3248 123.521 56.9575H128.266C128.192 56.3341 127.936 55.827 127.499 55.4362C127.071 55.0361 126.536 54.8361 125.894 54.8361Z" fill="#343434"/>
<g clip-path="url(#clip1_1805_849)">
<path d="M240.406 53.2453C239.895 52.9644 239.253 53.1512 238.972 53.6625C238.691 54.1738 238.878 54.816 239.389 55.0969C240.647 55.7881 241.369 56.5545 241.369 57.1994C241.369 57.9882 240.252 59.2107 237.115 60.2764C234.016 61.3293 229.875 61.9091 225.454 61.9091C221.033 61.9091 216.892 61.3293 213.793 60.2764C210.656 59.2108 209.538 57.9882 209.538 57.1994C209.538 56.5545 210.26 55.7881 211.518 55.0968C212.03 54.816 212.217 54.1737 211.936 53.6624C211.655 53.1511 211.013 52.9643 210.501 53.2452C209.098 54.016 207.426 55.3277 207.426 57.1994C207.426 58.6342 208.413 60.6798 213.113 62.2768C216.425 63.4021 220.808 64.0218 225.454 64.0218C230.1 64.0218 234.482 63.4021 237.794 62.2768C242.495 60.6798 243.482 58.6342 243.482 57.1994C243.482 55.3277 241.809 54.016 240.406 53.2453Z" fill="#4F95FF"/>
<path d="M217.478 58.7492C219.622 59.355 222.455 59.6886 225.453 59.6886C228.452 59.6886 231.284 59.355 233.428 58.7492C236.052 58.0082 237.382 56.9353 237.382 55.5609C237.382 54.1863 236.052 53.1136 233.428 52.3726C232.846 52.2081 232.213 52.0638 231.539 51.9407C231.173 52.5725 230.79 53.2228 230.39 53.8919C231.135 54.0038 231.835 54.1409 232.47 54.3028C234.401 54.7945 235.106 55.3481 235.251 55.5609C235.106 55.7738 234.401 56.3274 232.47 56.8191C230.643 57.2845 228.292 57.55 225.816 57.5737C225.696 57.5826 225.575 57.5876 225.453 57.5876C225.331 57.5876 225.211 57.5826 225.091 57.5737C222.614 57.55 220.263 57.2846 218.436 56.8191C216.505 56.3274 215.8 55.7737 215.655 55.5609C215.8 55.3481 216.505 54.7945 218.436 54.3028C219.071 54.1409 219.771 54.0038 220.517 53.8919C220.116 53.2229 219.733 52.5724 219.367 51.9407C218.694 52.0638 218.06 52.2081 217.478 52.3726C214.855 53.1136 213.524 54.1864 213.524 55.5609C213.524 56.9353 214.855 58.0081 217.478 58.7492Z" fill="#4F95FF"/>
<path d="M225.454 55.475C226.395 55.475 227.249 54.9958 227.739 54.1932C231.177 48.5696 235.274 41.1579 235.274 37.7854C235.274 32.3708 230.869 27.9658 225.454 27.9658C220.04 27.9658 215.635 32.3708 215.635 37.7854C215.635 41.1579 219.732 48.5696 223.169 54.1932C223.66 54.9958 224.514 55.475 225.454 55.475ZM221.507 37.1112C221.507 34.9349 223.278 33.1644 225.454 33.1644C227.631 33.1644 229.401 34.9349 229.401 37.1112C229.401 39.2875 227.631 41.058 225.454 41.058C223.278 41.058 221.507 39.2875 221.507 37.1112Z" fill="#4F95FF"/>
</g>
<defs>
<clipPath id="clip0_1805_849">
<rect width="38.6019" height="38.6019" fill="white" transform="translate(0.371094 20.7114)"/>
</clipPath>
<clipPath id="clip1_1805_849">
<rect width="36.056" height="36.056" fill="white" transform="translate(207.426 27.9656)"/>
</clipPath>
</defs>
</svg>
