<svg width="666" height="358" viewBox="0 0 666 358" fill="none" xmlns="http://www.w3.org/2000/svg">
<g clip-path="url(#clip0_1806_906)">
<path d="M128.744 236.726C169.74 236.726 202.973 194.01 202.973 141.318C202.973 88.6251 169.74 45.9094 128.744 45.9094C87.7489 45.9094 54.5156 88.6251 54.5156 141.318C54.5156 194.01 87.7489 236.726 128.744 236.726Z" fill="#E1EDFF"/>
<path d="M128.745 125.248L123.983 357.149H135.014V125.248H128.745Z" fill="#4F95FF"/>
<path d="M174.348 161.085C175.142 162.721 174.62 162.433 175.448 164.053L132.012 187.026V180.998L174.348 161.085Z" fill="#4F95FF"/>
<path d="M401.342 248.758C441.127 248.758 473.38 210.31 473.38 162.882C473.38 115.455 441.127 77.0068 401.342 77.0068C361.556 77.0068 329.304 115.455 329.304 162.882C329.304 210.31 361.556 248.758 401.342 248.758Z" fill="#E1EDFF"/>
<path d="M464.745 282.526C480.99 282.526 494.158 269.534 494.158 253.508C494.158 237.481 480.99 224.49 464.745 224.49C448.501 224.49 435.332 237.481 435.332 253.508C435.332 269.534 448.501 282.526 464.745 282.526Z" fill="#E1EDFF"/>
<path d="M400.663 148.418L405.628 357.15H395.699V148.418H400.663Z" fill="#4F95FF"/>
<path d="M463.683 253.508L405.628 283.526L395.699 288.196V282.77L405.628 278.1L462.621 251.294L463.683 253.508Z" fill="#4F95FF"/>
<path d="M360.295 180.675C359.58 182.147 360.004 181.318 359.259 182.776L398.401 204.024V198.598L360.295 180.675Z" fill="#4F95FF"/>
<path d="M439.448 202.519C440.163 203.992 439.417 202.534 440.163 203.992L401.342 225.868V220.442L439.448 202.519Z" fill="#4F95FF"/>
<path d="M461.798 107.271C461.846 106.632 461.879 105.989 461.879 105.337C461.879 91.7108 451.021 80.6643 437.627 80.6643C424.233 80.6643 413.375 91.7108 413.375 105.337C413.375 105.989 413.407 106.632 413.456 107.271H461.798Z" fill="#C8DEFF"/>
<path d="M533.8 107.27C533.844 106.695 533.873 106.115 533.873 105.528C533.873 93.2466 524.087 83.2905 512.015 83.2905C499.943 83.2905 490.157 93.2466 490.157 105.528C490.157 106.115 490.186 106.695 490.23 107.27H533.8Z" fill="#C8DEFF"/>
<path d="M508.397 107.27C508.587 105.745 508.682 104.209 508.682 102.671C508.682 82.7091 492.776 66.5264 473.154 66.5264C453.533 66.5264 437.627 82.7091 437.627 102.671C437.627 104.209 437.722 105.745 437.912 107.27H508.397Z" fill="#C8DEFF"/>
<path d="M531.008 356.778C531.051 356.207 531.08 355.632 531.08 355.049C531.08 342.861 521.368 332.98 509.388 332.98C497.407 332.98 487.695 342.861 487.695 355.049C487.695 355.632 487.724 356.207 487.768 356.778H531.008Z" fill="#E1EDFF"/>
<path d="M595.412 356.778C595.451 356.264 595.477 355.745 595.477 355.22C595.477 344.235 586.724 335.329 575.926 335.329C565.128 335.329 556.375 344.235 556.375 355.22C556.375 355.745 556.401 356.264 556.44 356.778H595.412Z" fill="#E1EDFF"/>
<path d="M572.689 356.778C572.859 355.414 572.944 354.04 572.944 352.664C572.944 334.809 558.716 320.334 541.166 320.334C523.615 320.334 509.388 334.809 509.388 352.664C509.387 354.04 509.473 355.414 509.643 356.778H572.689Z" fill="#E1EDFF"/>
<path d="M44.0086 120.059C44.0363 119.696 44.0547 119.33 44.0547 118.96C44.0547 111.214 37.8824 104.934 30.2686 104.934C22.6547 104.934 16.4824 111.214 16.4824 118.96C16.4824 119.33 16.5009 119.696 16.5286 120.059H44.0086Z" fill="#C8DEFF"/>
<path d="M84.9388 120.059C84.9638 119.732 84.9804 119.402 84.9804 119.068C84.9804 112.087 79.4174 106.427 72.5551 106.427C65.6928 106.427 60.1299 112.087 60.1299 119.068C60.1299 119.402 60.1465 119.732 60.1714 120.059H84.9388Z" fill="#C8DEFF"/>
<path d="M70.4982 120.059C70.6063 119.191 70.6604 118.318 70.6602 117.444C70.6602 106.097 61.6182 96.8975 50.4644 96.8975C39.3106 96.8975 30.2686 106.097 30.2686 117.444C30.2684 118.318 30.3225 119.191 30.4306 120.059H70.4982Z" fill="#C8DEFF"/>
<path d="M65.2942 197.976C65.2942 197.976 59.0645 197.598 53.4263 203.222C48.6557 207.982 44.544 223.794 42.9109 228.151C41.2778 232.507 37.8359 252.975 37.8359 252.975L43.4185 254.968L53.0495 231.379L62.6343 214.25C62.6343 214.25 76.3092 200.705 65.2942 197.976Z" fill="#018764"/>
<path d="M37.4005 267.707C37.3761 267.707 37.3522 267.7 37.3311 267.688C37.3157 267.679 37.3023 267.667 37.2915 267.653C37.2808 267.639 37.273 267.623 37.2685 267.606C37.2641 267.589 37.2631 267.571 37.2656 267.553C37.2681 267.536 37.2741 267.519 37.2833 267.504C37.3223 267.439 41.1776 260.967 40.2188 258.003C40.1407 257.736 40.0045 257.49 39.8202 257.281C39.6358 257.073 39.4077 256.908 39.1522 256.798C35.5539 255.222 29.654 265.02 29.5949 265.12C29.5762 265.151 29.5462 265.173 29.5112 265.182C29.4762 265.191 29.4392 265.185 29.408 265.167C29.3926 265.158 29.3791 265.147 29.3684 265.133C29.3576 265.119 29.3497 265.102 29.3452 265.085C29.3407 265.068 29.3397 265.05 29.3421 265.033C29.3446 265.015 29.3506 264.998 29.3596 264.983C29.6063 264.57 35.4443 254.878 39.2631 256.552C39.554 256.677 39.8138 256.864 40.024 257.101C40.2342 257.338 40.3895 257.618 40.4789 257.922C41.4747 261.001 37.6801 267.371 37.518 267.641C37.5058 267.661 37.4886 267.678 37.468 267.689C37.4474 267.701 37.4242 267.707 37.4005 267.707Z" fill="#103558"/>
<path d="M34.3284 266.522C34.295 266.522 34.2627 266.51 34.2376 266.488C34.2242 266.476 34.2133 266.462 34.2055 266.446C34.1977 266.43 34.1932 266.412 34.1922 266.395C34.1912 266.377 34.1937 266.359 34.1996 266.343C34.2055 266.326 34.2147 266.311 34.2266 266.297C34.2812 266.237 39.6804 260.228 39.0801 257.478C39.031 257.237 38.922 257.013 38.7632 256.826C38.6043 256.639 38.4009 256.496 38.1717 256.409C34.554 254.823 26.5884 263.863 26.5084 263.954C26.4845 263.981 26.451 263.998 26.415 264C26.379 264.003 26.3434 263.991 26.3159 263.968C26.3023 263.957 26.2912 263.943 26.2831 263.927C26.2751 263.911 26.2702 263.894 26.2689 263.876C26.2676 263.858 26.2698 263.841 26.2755 263.824C26.2811 263.807 26.29 263.791 26.3017 263.778C26.6339 263.398 34.4812 254.496 38.2825 256.162C38.5506 256.267 38.7883 256.437 38.9742 256.657C39.16 256.877 39.2882 257.139 39.347 257.421C39.9763 260.305 34.657 266.226 34.4302 266.477C34.4174 266.491 34.4016 266.502 34.3841 266.51C34.3665 266.518 34.3476 266.522 34.3284 266.522Z" fill="#103558"/>
<path d="M19.7501 260.953L0.0556641 299.361L11.0246 303.353L25.5123 263.05L19.7501 260.953Z" fill="#F05B5B"/>
<path d="M26.8608 263.541L10.9697 303.333L28.9781 309.887L41.4757 268.86L26.8608 263.541Z" fill="#E54547"/>
<path d="M24.0027 262.501L8.39355 295.815L11.0243 303.353L26.9061 263.558L24.0027 262.501Z" fill="#F1696A"/>
<path d="M8.39322 295.815L0 299.341L10.9689 303.333L8.39322 295.815Z" fill="#F05B5B"/>
<path d="M31.3808 265.769L17.1807 307.411L28.8536 309.86L37.5129 267.055L31.3808 265.769Z" fill="#0394C2"/>
<path d="M38.9477 267.356L28.7949 309.848L47.9591 313.87L54.5004 270.62L38.9477 267.356Z" fill="#03BBE6"/>
<path d="M35.9067 266.718L25.0781 302.625L28.8536 309.861L38.9964 267.367L35.9067 266.718Z" fill="#038AB5"/>
<path d="M25.0781 302.625L17.1221 307.399L28.795 309.848L25.0781 302.625Z" fill="#0394C2"/>
<path d="M43.5477 254.599L42.5268 258.029C42.5268 258.029 44.3734 259.149 43.9531 260.272C42.5847 262.747 37.7872 263.103 36.6334 262.501C35.4797 261.899 34.0391 259.969 34.3895 258.186C34.7399 256.403 37.8354 252.975 37.8354 252.975C37.8354 252.975 42.6058 252.89 43.5477 254.599Z" fill="#F7A58E"/>
<path d="M37.5127 254.054L38.9962 246.351C40.3976 248.116 45.0245 248.804 46.0858 248.435L43.2504 255.599L37.5127 254.054Z" fill="#F7A58E"/>
<path d="M64.0451 235.874C62.6232 237.031 56.0632 243.72 53.558 256.606C52.8051 260.479 48.5845 334.271 47.2373 352.204H55.3522C63.7522 313.959 71.2103 284.643 80.605 242.004C82.2188 232.339 70.9328 227.054 64.0451 235.874Z" fill="#024263"/>
<path d="M70.9954 239.275C69.8445 241.47 72.3326 254.789 72.3326 263.349C72.3326 273.7 72.1119 356.099 72.1119 356.099L79.0056 356.099C83.5778 326.123 90.8282 288.972 92.4067 264.139C93.3013 250.063 92.151 247.849 88.211 233.515C85.2988 225.241 75.0722 230.591 70.9954 239.275Z" fill="#024263"/>
<path d="M78.2075 206.272L64.5615 206.688L66.875 187.224L77.7922 186.892L78.2075 206.272Z" fill="#FF9E82"/>
<path d="M109.8 179.737C108.21 177.635 104.385 178.087 104.095 178.122V185.193C104.27 186.397 107.442 186.478 108.864 185.193C108.864 185.193 111.162 181.793 109.8 179.737Z" fill="#FFBAA6"/>
<path d="M106.319 178.853C105.875 175.774 105.082 173.383 104.512 173.458C103.942 173.532 103.807 176.044 104.192 179.131C104.476 181.278 106.375 180.369 106.319 178.853Z" fill="#FFBAA6"/>
<path d="M47.4604 349.243C48.1887 348.305 53.0855 351.118 55.8988 349.243C55.8988 349.243 68.7582 352.564 63.8535 356.099C57.2905 356.099 46.9456 356.099 46.9456 356.099C45.8962 355.005 45.6548 352.94 47.4604 349.243Z" fill="white"/>
<path d="M72.0219 349.243C72.7502 348.305 77.647 351.118 80.4603 349.243C80.4603 349.243 93.3197 352.564 88.415 356.099C81.8521 356.099 71.5072 356.099 71.5072 356.099C70.4577 355.005 70.2163 352.94 72.0219 349.243Z" fill="white"/>
<path d="M85.68 173.741C86.8157 182.795 84.8884 190.321 78.2073 191.007C71.5262 191.692 62.2186 183.176 61.4857 176.223C60.7529 169.27 65.5748 163.078 72.2559 162.392C78.9369 161.707 84.8098 166.803 85.68 173.741Z" fill="#FF9E82"/>
<path d="M72.181 159.877C72.181 159.877 85.5579 159.096 87.7621 168.919C90.2025 177.486 82.8591 171.783 80.7963 177.93C78.4336 184.971 82.1377 189.54 86.318 190.439C83.2777 195.763 62.7563 197.788 56.524 189.689C51.7108 179.208 55.0212 162.33 72.181 159.877Z" fill="#0D0D0D"/>
<path d="M81.0922 180.196C82.4693 180.196 83.5857 179.095 83.5857 177.736C83.5857 176.378 82.4693 175.276 81.0922 175.276C79.715 175.276 78.5986 176.378 78.5986 177.736C78.5986 179.095 79.715 180.196 81.0922 180.196Z" fill="#FF9E82"/>
<path d="M107.97 183.843L104.158 184.141C103.97 186.072 103.67 189.156 103.339 192.561H109.303C108.84 189.023 108.351 185.91 107.97 183.843Z" fill="#FFBAA6"/>
<path d="M103.338 192.561C102.761 198.51 102.088 205.441 101.749 208.933L85.74 198.274C85.74 198.274 75.7585 192.142 72.7834 199.949C70.0657 207.08 80.508 211.852 80.508 211.852C80.508 211.852 108.828 226.847 110.394 216.46C111.308 211.316 110.378 200.783 109.303 192.561H103.338Z" fill="#018764"/>
<path d="M91.0601 214.633C91.0017 217.173 88.4511 235.884 88.4511 235.884C88.4511 235.884 74.5916 236.052 64.0434 235.874C59.2232 215.98 52.1325 204.283 63.9693 197.668C80.7085 191.462 92.6633 199.743 91.0601 214.633Z" fill="#018764"/>
<path d="M80.8926 196.564C68.6278 200.553 63.9707 197.669 63.9707 197.669C66.6106 195.645 76.4615 194.197 80.8926 196.564Z" fill="#FF9E82"/>
<path d="M63.9698 231.378C61.3202 237.279 57.5847 241.754 55.583 247.127C55.583 247.127 68.4391 254.356 92.1654 249.212C92.1654 249.212 90.4303 239.303 88.0326 231.378C85.6348 223.454 68.08 221.137 63.9698 231.378Z" fill="#018764"/>
<path d="M50.594 270.263C50.5674 270.264 50.5414 270.256 50.5191 270.241C50.4968 270.227 50.4792 270.206 50.4685 270.182C50.4302 270.094 46.5846 261.317 42.4467 258.054C42.4328 258.043 42.4211 258.03 42.4125 258.014C42.4038 257.999 42.3983 257.982 42.3964 257.964C42.3944 257.947 42.3959 257.929 42.4009 257.912C42.4059 257.895 42.4142 257.879 42.4253 257.865C42.4482 257.837 42.4811 257.819 42.517 257.815C42.5528 257.811 42.5889 257.822 42.6172 257.844C46.8085 261.149 50.6807 269.987 50.7194 270.076C50.7264 270.092 50.7301 270.11 50.7303 270.127C50.7305 270.145 50.7272 270.163 50.7205 270.179C50.7139 270.196 50.704 270.211 50.6915 270.223C50.679 270.236 50.6641 270.246 50.6477 270.253C50.6307 270.26 50.6125 270.263 50.594 270.263Z" fill="#103558"/>
<path d="M41.7994 268.458C41.7753 268.458 41.7516 268.451 41.7308 268.439C41.667 268.403 35.3401 264.709 34.2545 259.344C34.2511 259.326 34.2511 259.309 34.2547 259.291C34.2582 259.274 34.2651 259.257 34.2751 259.242C34.2851 259.228 34.2978 259.215 34.3127 259.205C34.3275 259.196 34.3442 259.189 34.3616 259.186C34.3969 259.178 34.4336 259.186 34.4636 259.205C34.4937 259.225 34.5148 259.256 34.5222 259.291C35.5841 264.539 41.8055 268.171 41.8683 268.207C41.8837 268.215 41.8972 268.227 41.908 268.241C41.9189 268.255 41.9268 268.271 41.9314 268.288C41.936 268.305 41.9371 268.323 41.9347 268.341C41.9323 268.358 41.9264 268.375 41.9174 268.391C41.9052 268.411 41.8879 268.428 41.8673 268.44C41.8466 268.452 41.8232 268.458 41.7994 268.458Z" fill="#103558"/>
<path d="M457.379 180.617C456.587 187.985 460.35 195.84 465.085 195.783C471.579 195.705 479.977 190.432 480.769 183.064C481.561 175.696 476.967 169.176 470.508 168.5C464.049 167.825 458.171 173.25 457.379 180.617Z" fill="#FF9070"/>
<path d="M497.627 350.22C497.627 350.22 490.806 349.467 485.488 350.22C481.077 353.093 479.175 352.926 479.175 352.926C477.29 353.412 476.449 355.966 478.085 355.966H498.178L497.627 350.22Z" fill="white"/>
<path d="M480.752 350.22C480.752 350.22 473.931 349.467 468.613 350.22C464.202 353.093 462.3 352.926 462.3 352.926C460.415 353.412 459.574 355.966 461.21 355.966H481.303L480.752 350.22Z" fill="white"/>
<path d="M471.337 204.503L483.966 200.297L474.818 181.501L465.938 185.708L471.337 204.503Z" fill="#FF9070"/>
<path d="M458.802 217.687C458.802 217.687 449.005 224.769 453.787 232.283C457.35 237.883 468.757 231.819 468.757 225.304C468.757 219.431 464.174 215.968 458.802 217.687Z" fill="#F0C46E"/>
<path d="M489.066 246.841C489.066 246.841 491.422 250.87 492.997 258.895C493.557 261.747 492.902 274.645 493.088 296.368C497.669 324.458 498.178 352.591 498.178 352.591L485.488 350.22L466.062 248.011L489.066 246.841Z" fill="#0D0D0D"/>
<path d="M460.339 249.445C460.843 268.73 461.731 286.042 463.531 298.668L468.613 350.22L481.032 352.496C481.019 336.499 480.561 316.519 478.331 297.986L483.966 249.596L460.339 249.445Z" fill="#0D0D0D"/>
<path d="M492.82 248.456C491.984 253.441 491.528 253.777 491.528 253.777L460.34 254.457C460.34 254.457 460.964 249.912 459.531 246.842C459.319 246.384 459.343 244.855 459.558 242.603C459.863 239.375 460.558 234.667 461.49 229.512C463.495 218.432 466.601 205.292 469.335 200.356L483.367 197.034C483.367 197.034 489.625 203.296 491.003 208.839C492.383 214.382 493.657 243.474 492.82 248.456Z" fill="#FFD175"/>
<path d="M470.208 225.868L459.559 242.603C459.863 239.375 460.558 234.666 461.49 229.512L470.208 225.868Z" fill="#F0BC56"/>
<path d="M474.048 221.698C474.048 221.698 477.823 229.719 473.903 231.867C469.983 234.016 466.062 227.141 466.062 227.141L474.048 221.698Z" fill="#FF9070"/>
<path d="M458.5 200.321L461.217 217.63L469.672 207.811C469.672 207.811 477.271 200.209 483.371 207.072C489.471 213.935 479.946 220.798 479.946 220.798C479.946 220.798 466.033 231.97 457.15 230.808C448.267 229.647 453.812 200.65 453.812 200.65L458.5 200.321Z" fill="#FFD175"/>
<path d="M458.5 200.321L459.87 193.728L456.377 188.496C456.377 188.496 455.076 187.549 454.596 190.455C453.639 191.807 452.473 192.808 452.61 194.335C452.747 195.861 453.812 200.65 453.812 200.65L458.5 200.321Z" fill="#FF9070"/>
<path d="M483.366 197.033L482.372 194.499L467.507 200.321L466.338 206.689L483.366 197.033Z" fill="white"/>
<path d="M479.189 190.607C479.189 190.607 484.038 183.722 482.521 175.489C481.003 167.256 468.638 165.535 468.638 165.535C468.638 165.535 455.741 164.786 452.858 177.734C454.224 179.456 459.838 176.611 459.838 176.611L469.065 184.919C469.065 184.919 468.957 178.408 472.211 180.054C475.465 181.701 474.494 186.94 474.494 186.94C474.494 186.94 477.527 190.083 479.189 190.607Z" fill="#733602"/>
<path d="M335.226 358L188.963 357.13C180.425 357.075 173.519 349.406 173.534 340.008L174.048 28.4227C174.063 19.3607 180.86 11.9997 189.233 11.9728L332.837 11.5428C341.277 11.5158 348.179 18.8664 348.249 27.9696L350.681 340.996C350.755 350.437 343.834 358.054 335.226 358Z" fill="#027F99"/>
<path d="M337.116 355.734C336.542 355.809 335.965 355.845 335.387 355.84L189.166 354.819C181.829 354.764 175.832 348.041 175.845 339.838L176.317 28.5944C176.329 20.6832 182.231 14.227 189.428 14.1963L333.024 13.6205C333.233 13.6196 333.445 13.624 333.654 13.6335C337.03 13.788 340.185 15.3053 342.543 17.9019C344.953 20.5558 346.294 24.0729 346.323 27.8111L348.723 341.155C348.78 348.581 343.807 354.849 337.116 355.734Z" fill="#0D0D0D"/>
<path d="M341.618 29.386L343.926 332.671L180.396 331.761L180.789 29.386H341.618Z" fill="white"/>
<path d="M217.105 28.9182L198.82 93.1198H225.144L235.908 28.9182H217.105Z" fill="#F13005"/>
<path d="M182.06 28.9182L149.757 93.1198H172.497L198.303 28.9182H182.06Z" fill="#F13005"/>
<path d="M327.336 28.9182L353.142 93.1198H375.882L343.579 28.9182H327.336Z" fill="#F13005"/>
<path d="M235.909 28.9182L225.145 93.1198H251.469L254.712 28.9182H235.909Z" fill="#FF8469"/>
<path d="M198.303 28.9182L172.497 93.1198H198.821L217.106 28.9182H198.303Z" fill="#FF8469"/>
<path d="M273.514 28.9182L277.792 93.1198H304.116L292.317 28.9182H273.514Z" fill="#FF8469"/>
<path d="M327.337 28.9182H311.121L330.441 93.1198H353.143L327.337 28.9182Z" fill="#FF8469"/>
<path d="M292.317 28.9182L304.116 93.1198H330.44L311.12 28.9182H292.317Z" fill="#F13005"/>
<path d="M254.712 28.9182L251.469 93.1198H277.793L273.515 28.9182H254.712Z" fill="#F13005"/>
<path d="M149.756 93.1199H172.496V108.241C172.496 111.237 171.307 114.111 169.19 116.23C167.073 118.349 164.202 119.54 161.208 119.54H161.044C159.562 119.54 158.094 119.247 156.724 118.68C155.355 118.112 154.11 117.28 153.062 116.23C152.014 115.181 151.182 113.935 150.615 112.565C150.048 111.194 149.756 109.724 149.756 108.241V93.1199Z" fill="#E32A00"/>
<path d="M172.496 93.1199H198.82V107.383C198.82 108.979 198.506 110.56 197.895 112.035C197.285 113.51 196.39 114.85 195.263 115.979C194.135 117.108 192.796 118.003 191.323 118.614C189.849 119.225 188.27 119.54 186.675 119.54H184.641C181.42 119.54 178.331 118.259 176.053 115.979C173.776 113.699 172.496 110.607 172.496 107.383V93.1199Z" fill="#FF7051"/>
<path d="M198.82 93.1199H225.144V107.383C225.144 110.607 223.865 113.699 221.587 115.979C219.309 118.259 216.22 119.54 212.999 119.54H210.965C207.744 119.54 204.655 118.259 202.377 115.979C200.1 113.699 198.82 110.607 198.82 107.383V93.1199Z" fill="#E32A00"/>
<path d="M225.145 93.1199H251.468V107.383C251.468 110.607 250.189 113.699 247.911 115.979C245.634 118.259 242.544 119.54 239.323 119.54H237.289C234.068 119.54 230.979 118.259 228.702 115.979C226.424 113.699 225.145 110.607 225.145 107.383V93.1199Z" fill="#FF7051"/>
<path d="M251.468 93.1199H277.792V107.383C277.792 110.607 276.512 113.699 274.234 115.979C271.957 118.259 268.868 119.54 265.647 119.54H263.613C260.392 119.54 257.303 118.259 255.025 115.979C252.747 113.699 251.468 110.607 251.468 107.383V93.1199Z" fill="#E32A00"/>
<path d="M277.792 93.1199H304.116V107.383C304.116 110.607 302.836 113.699 300.559 115.979C298.281 118.259 295.192 119.54 291.971 119.54H289.937C286.716 119.54 283.627 118.259 281.349 115.979C279.072 113.699 277.792 110.607 277.792 107.383V93.1199Z" fill="#FF7051"/>
<path d="M304.115 93.1199H330.439V107.383C330.439 110.607 329.16 113.699 326.882 115.979C324.604 118.259 321.515 119.54 318.294 119.54H316.26C313.039 119.54 309.95 118.259 307.672 115.979C305.395 113.699 304.115 110.607 304.115 107.383V93.1199Z" fill="#E32A00"/>
<path d="M330.438 93.1199H353.179V108.241C353.179 111.237 351.99 114.111 349.873 116.23C347.756 118.349 344.885 119.54 341.891 119.54H341.727C338.733 119.54 335.862 118.349 333.745 116.23C331.628 114.111 330.438 111.237 330.438 108.241V93.1199Z" fill="#FF7051"/>
<path d="M353.142 93.1199H375.882V108.241C375.882 111.237 374.693 114.111 372.576 116.23C370.459 118.349 367.588 119.54 364.594 119.54H364.43C361.436 119.54 358.565 118.349 356.448 116.23C354.331 114.111 353.142 111.237 353.142 108.241V93.1199Z" fill="#E32A00"/>
<path d="M187.981 263.285V199.421C187.981 158.987 221.325 126.092 262.309 126.092C303.294 126.092 336.637 158.987 336.637 199.421V263.285H187.981Z" fill="#0091B4"/>
<path d="M332.01 258.72H192.607V199.421C192.607 161.443 223.814 130.656 262.309 130.656H262.309C300.804 130.656 332.01 161.443 332.01 199.421V258.72Z" fill="#005875"/>
<path d="M340.34 258.72H184.278V265.511H340.34V258.72Z" fill="#0091B4"/>
<path d="M219.581 221.49H212.931V235.347H219.581V221.49Z" fill="#016566"/>
<path d="M317.277 172.838H207.287V174.866H317.277V172.838Z" fill="#006F94"/>
<path d="M317.304 193.575H207.313V195.602H317.304V193.575Z" fill="#006F94"/>
<path d="M317.277 214.511H207.287V216.538H317.277V214.511Z" fill="#006F94"/>
<path d="M317.277 235.347H207.287V237.374H317.277V235.347Z" fill="#006F94"/>
<path d="M228.414 185.045H213.456V193.675H228.414V185.045Z" fill="#006F94"/>
<path d="M234.293 176.632H219.335V185.262H234.293V176.632Z" fill="#006F94"/>
<path d="M246.194 185.045H231.236V193.675H246.194V185.045Z" fill="#006F94"/>
<path d="M262.872 185.045H247.914V193.675H262.872V185.045Z" fill="#006F94"/>
<path d="M264.925 205.881H249.968V214.511H264.925V205.881Z" fill="#006F94"/>
<path d="M279.882 205.881H264.925V214.511H279.882V205.881Z" fill="#006F94"/>
<path d="M287.786 226.491H272.828V235.121H287.786V226.491Z" fill="#006F94"/>
<path d="M302.744 226.491H287.786V235.121H302.744V226.491Z" fill="#006F94"/>
<path d="M252.802 176.632H237.845V185.262H252.802V176.632Z" fill="#006F94"/>
<path d="M282.588 179.818H275.938V193.675H282.588V179.818Z" fill="#006F94"/>
<path d="M290.693 179.818H284.043V193.675H290.693V179.818Z" fill="#006F94"/>
<path d="M298.799 179.818H292.148V193.675H298.799V179.818Z" fill="#006F94"/>
<path d="M306.904 179.818H300.254V193.675H306.904V179.818Z" fill="#006F94"/>
<path d="M248.514 158.981H241.863V172.838H248.514V158.981Z" fill="#006F94"/>
<path d="M256.618 158.981H249.968V172.838H256.618V158.981Z" fill="#006F94"/>
<path d="M264.724 158.981H258.073V172.838H264.724V158.981Z" fill="#006F94"/>
<path d="M272.828 158.981H266.178V172.838H272.828V158.981Z" fill="#006F94"/>
<path d="M227.686 221.49H221.036V235.347H227.686V221.49Z" fill="#006F94"/>
<path d="M235.791 221.49H229.141V235.347H235.791V221.49Z" fill="#006F94"/>
<path d="M243.895 221.49H237.245V235.347H243.895V221.49Z" fill="#006F94"/>
<path d="M224.184 197.265L201.299 209.83L171.681 212.446L170.75 216.576C170.75 216.576 198.553 222.122 204.296 221.054C211.812 219.81 236.17 209.628 236.17 209.628C239.7 200.198 228.673 194.618 224.184 197.265Z" fill="#FF9E82"/>
<path d="M228.237 194.136C228.237 194.136 220.011 195.846 213.699 202.384C214.687 211.198 222.421 217.373 222.421 217.373C222.421 217.373 236.292 215.981 239.033 206.036C241.774 196.091 228.237 194.136 228.237 194.136Z" fill="#F14924"/>
<path d="M251.695 237.703L250.631 252.857L250.525 254.395L250.206 258.905H230.728L230.154 250.31L229.914 246.695L229.909 246.69L229.345 238.223L246.102 237.835L251.695 237.703Z" fill="#4F95FF"/>
<path d="M266.014 258.904H249.354L248.253 251.72L246.129 237.835L245.574 234.201L264.14 231.308L265.385 249.638L266.014 258.904Z" fill="#4F95FF"/>
<path d="M265.601 240.227C264.145 215.493 257.596 195.763 253.396 192.62C245.572 186.768 222.908 191.489 222.882 201.035C222.864 207.709 227.154 231.422 229.077 239.98C239.147 242.891 251.211 243.121 265.601 240.227Z" fill="#F14924"/>
<path d="M265.628 241.365C258.011 244.093 236.164 244.687 228.594 242.226L228.516 238.934C241.53 241.045 253.083 241.646 265.565 238.722L265.628 241.365Z" fill="#0D0D0D"/>
<path d="M227.503 212.894L229.222 222.975L239.259 222.086L237.803 211.234L227.503 212.894Z" fill="#4F95FF"/>
<path d="M272.582 214.85C268.067 207.73 264.009 202.761 260.656 199.305C258.084 202.745 255.525 206.195 252.842 209.548L262.509 218.013L263.621 247.043L268.677 247.647C268.677 247.647 276.05 226.799 272.582 214.85Z" fill="#FF9E82"/>
<path d="M250.286 191.052C250.286 191.052 258.837 191.9 265.936 204.924C264.208 210.451 256.209 214.601 256.209 214.601C256.209 214.601 241.786 204.978 245.573 195.473C247.403 190.846 250.286 191.052 250.286 191.052Z" fill="#F14924"/>
<path d="M244.909 191.288C243.22 194.528 233.097 198.166 232.176 196.276L230.622 193.62L227.217 187.814L234.184 182.624L235.767 181.442L244.909 191.288Z" fill="#FF9E82"/>
<path d="M241.872 188.42C241.872 188.42 241.542 193.554 234.764 196.689C237.624 196.783 240.942 200.042 240.942 200.042C240.942 200.042 246.199 196.146 245.706 189.98C244.107 187.528 241.872 188.42 241.872 188.42Z" fill="#4F95FF"/>
<path d="M230.053 192.652C230.053 192.652 225.653 193.813 229.58 200.567C230.463 198.351 234.096 196.772 234.096 196.772C234.096 196.772 232.977 196.295 230.053 192.652Z" fill="#4F95FF"/>
<path d="M231.305 194.152C229.99 192.718 228.612 190.39 227.217 187.814L236.063 183.037C236.118 185.917 234.594 191.829 231.305 194.152Z" fill="#DE7F67"/>
<path d="M236.956 185.371C234.784 188.531 229.128 192.295 223.761 192.401C219.535 192.486 216.149 187.075 214.554 180.331C214.159 178.656 213.88 176.956 213.718 175.243C213.54 173.5 213.534 171.744 213.7 170.001C214.406 163.139 218.261 159.197 224.934 158.502C233.156 157.646 239.117 160.915 240.198 171.004C240.722 175.911 238.783 182.716 236.956 185.371Z" fill="#FF9E82"/>
<path d="M233.382 165.058C233.382 165.058 231.477 176.97 214.554 180.331C214.159 178.656 213.88 176.956 213.718 175.243C213.54 173.5 213.534 171.745 213.7 170.001C221.216 165.652 230.603 162.295 233.382 165.058Z" fill="#FC8365"/>
<path d="M215.58 173.778C215.566 173.75 215.559 173.719 215.557 173.688C215.555 173.657 215.56 173.625 215.571 173.596C215.581 173.566 215.598 173.539 215.619 173.516C215.64 173.493 215.666 173.474 215.694 173.461C215.752 173.434 215.818 173.431 215.878 173.452C215.938 173.473 215.988 173.517 216.016 173.574C216.029 173.602 216.037 173.633 216.039 173.664C216.04 173.696 216.036 173.727 216.025 173.757C216.014 173.786 215.998 173.813 215.977 173.836C215.955 173.859 215.93 173.878 215.901 173.891C215.844 173.918 215.778 173.922 215.717 173.901C215.657 173.879 215.608 173.836 215.58 173.778Z" fill="#F7A28A"/>
<path d="M234.099 165.471C234.099 165.471 227.72 176.918 209.933 175.358C208.596 169.402 212.689 163.033 216.701 160.567C222.829 156.802 231.23 157.454 233.983 158.956C237.14 160.679 238.085 162.818 234.099 165.471Z" fill="#0D0D0D"/>
<path d="M237.458 161.471C237.006 161.364 234.239 162.181 232.432 167.021C232.576 173.048 237.007 178.026 241.188 175.886C243.937 168.419 242.378 162.638 237.458 161.471Z" fill="#0D0D0D"/>
<path d="M238.066 181.87C240.185 181.87 241.902 180.175 241.902 178.085C241.902 175.995 240.185 174.3 238.066 174.3C235.947 174.3 234.229 175.995 234.229 178.085C234.229 180.175 235.947 181.87 238.066 181.87Z" fill="#FF9E82"/>
<path d="M213.144 163.818C213.144 163.818 200.69 165.979 203.342 169.331C205.995 172.682 224.012 170.25 230.217 166.782C230.217 166.782 221.984 163.162 213.144 163.818Z" fill="#4F95FF"/>
<path d="M234.796 156.699C234.983 156.202 234.247 155.465 233.152 155.052C232.057 154.64 231.018 154.708 230.831 155.204C230.645 155.701 231.381 156.438 232.475 156.85C233.57 157.263 234.609 157.195 234.796 156.699Z" fill="#4F95FF"/>
<path d="M232.572 155.992C232.338 155.904 232.102 155.816 231.859 155.728C225.011 153.26 215.246 154.863 213.144 163.818C213.144 163.818 216.887 163.91 222.712 165.041C224.067 156.825 232.572 155.992 232.572 155.992Z" fill="#F14924"/>
<path d="M232.572 155.992C232.667 156.056 240.178 161.274 236.864 169.05C238.75 169.76 240.69 170.564 242.664 171.479C243.778 163.412 241.689 159.434 232.572 155.992Z" fill="#F14924"/>
<path d="M232.572 155.992C232.572 155.992 224.067 156.825 222.712 165.041C227.533 165.98 232.266 167.321 236.863 169.05C240.177 161.274 232.666 156.056 232.572 155.992Z" fill="#FF8166"/>
<path d="M265.986 258.904H230.727L230.153 250.31C230.981 251.606 234.03 255.673 239.707 256.307C244.949 256.901 247.392 254.659 248.224 253.619C248.356 253.46 248.473 253.291 248.576 253.112C249.185 253.599 249.837 254.028 250.524 254.395C250.558 254.417 250.593 254.437 250.63 254.454C252.296 255.349 254.826 256.307 257.69 256.011C262.775 255.49 265.542 251.972 265.542 251.972L265.986 258.904Z" fill="#02B6B8"/>
<path d="M169.705 199.454L171.798 223.664L158.178 224.81L156.077 200.518L156.082 200.512L157.137 201.347L158.038 200.347L159.099 201.182L159.995 200.182L161.055 201.018L161.956 200.017L162.962 200.813L163.011 200.853L163.913 199.853L164.973 200.688L165.869 199.688L166.438 200.136L166.929 200.523L167.831 199.523L168.891 200.358L169.705 199.454Z" fill="#FF9E4D"/>
<path d="M169.704 199.454L171.798 223.664L164.988 224.237L162.962 200.812L163.011 200.853L163.912 199.853L164.972 200.688L165.868 199.688L166.438 200.136L166.929 200.523L167.83 199.523L168.89 200.358L169.704 199.454Z" fill="#FFC594"/>
<path d="M166.438 200.136L168.025 219.731L164.988 224.237L162.962 200.812L163.011 200.853L163.912 199.852L164.972 200.688L165.868 199.688L166.438 200.136Z" fill="#FFB06E"/>
<path d="M174.761 211.677C174.761 211.677 167.706 206.576 165.608 205.546C164.528 207.111 165.238 208.292 167.05 208.803C168.862 209.315 167.981 215.484 172.469 215.848C176.957 216.212 177.429 212.469 174.761 211.677Z" fill="#FF9E82"/>
<path d="M323.071 241.16L327.231 217.187H283.806L279.646 241.16H323.071Z" fill="#049799"/>
<path d="M325.144 241.16L329.304 217.187H285.879L281.719 241.16H325.144Z" fill="#0D0D0D"/>
<path d="M307.641 258.72H301.714L299.235 240.033H305.163L307.641 258.72Z" fill="#0D0D0D"/>
<path d="M282.756 258.721H276.182V253.695L282.756 251.045V258.721Z" fill="#049799"/>
<path d="M325.414 251.045H282.755V258.721H325.414V251.045Z" fill="#0D0D0D"/>
<path d="M225.754 236.611V258.553H213.409V236.536L213.414 236.531L214.298 237.362L215.187 236.531L216.076 237.362L216.96 236.531L217.849 237.362L218.738 236.531L219.582 237.322L219.622 237.362L220.511 236.531L221.4 237.362L222.284 236.531L222.762 236.977L223.173 237.362L224.063 236.531L224.952 237.362L225.754 236.611Z" fill="#FFC594"/>
<path d="M225.755 236.611V258.553H219.582V237.322L219.623 237.362L220.512 236.531L221.401 237.362L222.285 236.531L222.762 236.977L223.174 237.362L224.063 236.531L224.952 237.362L225.755 236.611Z" fill="#FF9E4D"/>
<path d="M222.762 236.977L222.666 254.729L219.582 258.553V237.322L219.623 237.362L220.512 236.531L221.401 237.362L222.285 236.531L222.762 236.977Z" fill="#ED9348"/>
<path d="M210.08 236.611V258.553H197.735V236.536L197.74 236.531L198.624 237.362L199.513 236.531L200.402 237.362L201.286 236.531L202.175 237.362L203.064 236.531L203.908 237.322L203.948 237.362L204.837 236.531L205.727 237.362L206.61 236.531L207.088 236.977L207.5 237.362L208.389 236.531L209.278 237.362L210.08 236.611Z" fill="#FFC594"/>
<path d="M210.08 236.611V258.553H203.908V237.322L203.949 237.362L204.838 236.531L205.727 237.362L206.611 236.531L207.088 236.977L207.5 237.362L208.389 236.531L209.278 237.362L210.08 236.611Z" fill="#FF9E4D"/>
<path d="M207.088 236.977L206.992 254.729L203.908 258.553V237.322L203.949 237.362L204.838 236.531L205.727 237.362L206.611 236.531L207.088 236.977Z" fill="#ED9348"/>
<path d="M267.137 250.561L267.197 252.356L249.408 255.247L249.349 253.452L267.137 250.561Z" fill="#0D0D0D"/>
<path d="M247.776 257.321C250.281 256.747 252.043 255.11 251.713 253.667C251.382 252.223 249.083 251.518 246.579 252.093C244.074 252.668 242.311 254.304 242.642 255.748C242.972 257.192 245.271 257.896 247.776 257.321Z" fill="#0D0D0D"/>
<path d="M267.159 251.222L267.1 249.428L249.157 247.694L249.217 249.488L267.159 251.222Z" fill="#027273"/>
<path d="M251.562 249.125C251.799 247.664 249.935 246.144 247.398 245.73C244.86 245.317 242.611 246.166 242.373 247.627C242.135 249.089 243.999 250.609 246.537 251.023C249.074 251.436 251.324 250.587 251.562 249.125Z" fill="#027273"/>
<path d="M267.198 252.354C267.444 252.346 267.621 251.686 267.594 250.881C267.568 250.076 267.346 249.43 267.101 249.438C266.855 249.446 266.677 250.105 266.704 250.911C266.731 251.716 266.952 252.362 267.198 252.354Z" fill="#027273"/>
<path d="M263.264 245.996C263.264 245.996 259.195 248.705 261.824 249.162C262.825 249.827 262.562 252.151 262.562 252.151C262.562 252.151 261.312 253.984 264.991 254.712C268.67 255.439 271.477 253.318 271.501 251.277C271.526 249.236 269.31 244.486 269.31 244.486L263.264 245.996Z" fill="#FF9E82"/>
<path d="M318.652 274.597H207.091V324.047H318.652V274.597Z" fill="#E1EDFF"/>
<path d="M272.021 282.729H264.35V286.597H272.021V282.729Z" fill="white"/>
<path d="M256.047 282.729H213.183V286.597H256.047V282.729Z" fill="white"/>
<path d="M256.047 292.318H213.183V296.187H256.047V292.318Z" fill="white"/>
<path d="M272.021 292.318H264.35V296.187H272.021V292.318Z" fill="white"/>
<path d="M256.047 301.908H213.183V305.776H256.047V301.908Z" fill="white"/>
<path d="M272.021 301.908H264.35V305.776H272.021V301.908Z" fill="white"/>
<path d="M256.047 311.497H213.183V315.366H256.047V311.497Z" fill="white"/>
<path d="M272.021 311.497H264.35V315.366H272.021V311.497Z" fill="white"/>
<path d="M295.632 281.033H279.218V297.227H295.632V281.033Z" fill="white"/>
<path d="M312.045 301.908H295.631V318.101H312.045V301.908Z" fill="white"/>
<path d="M372.694 260.45L354.838 356.774H358.658L374.349 274.546L372.694 260.45Z" fill="#0D0D0D"/>
<path d="M372.072 356.728L435.715 356.676L426.962 241.722L363.319 241.774L372.072 356.728Z" fill="#027273"/>
<path d="M430.712 352.116L422.655 246.29L368.321 246.334L376.378 352.16L430.712 352.116Z" fill="#CEFFFF"/>
<path d="M386.264 287.355H421.903L422.2 291.193H386.56L386.264 287.355Z" fill="#4F95FF"/>
<path d="M381.158 287.355L381.454 291.193H376.348L376.052 287.355H381.158Z" fill="#4F95FF"/>
<path d="M387.084 297.984H422.724L423.02 301.822H387.38L387.084 297.984Z" fill="#4F95FF"/>
<path d="M381.978 297.984L382.274 301.822H377.168L376.872 297.984H381.978Z" fill="#4F95FF"/>
<path d="M382.798 308.612L383.094 312.45H377.988L377.692 308.612H382.798Z" fill="#4F95FF"/>
<path d="M387.904 308.612H423.544L423.84 312.45H388.201L387.904 308.612Z" fill="#4F95FF"/>
<path d="M388.724 319.24H424.364L424.66 323.078H389.02L388.724 319.24Z" fill="#4F95FF"/>
<path d="M383.618 319.24L383.914 323.078H378.808L378.512 319.24H383.618Z" fill="#4F95FF"/>
<path d="M405.588 344.81H424.532L423.314 329.02H404.369L405.588 344.81Z" fill="#4F95FF"/>
<path d="M381.224 344.81H400.169L398.951 329.02H380.006L381.224 344.81Z" fill="#4F95FF"/>
<path d="M408.752 276.536C413.516 270.551 412.137 261.519 405.673 256.363C399.208 251.208 390.105 251.88 385.341 257.865C380.577 263.851 381.955 272.882 388.42 278.038C394.885 283.194 403.987 282.522 408.752 276.536Z" fill="#4F95FF"/>
<path d="M620.661 205.716C617.084 196.764 607.034 199.087 607.034 199.087C607.034 199.087 609.377 193.797 605.361 189.767C601.344 185.737 596.024 187.433 596.024 187.433C596.024 187.433 593.787 182.753 589.748 182.994C585.708 183.235 585.667 188.962 585.667 188.962C585.667 188.962 585.579 188.938 585.421 188.905C585.497 189.882 585.613 190.857 585.78 191.82C587.119 199.549 593.486 205.384 595.176 213.03C596.29 218.066 594.36 223.264 595.704 228.232C596.052 229.493 596.602 230.689 597.333 231.774C599.242 233.085 608.423 238.802 614.522 232.006C621.358 224.389 616.039 218.202 616.039 218.202C616.039 218.202 624.237 214.668 620.661 205.716Z" fill="#0D0D0D"/>
<path d="M593.764 194.817C595.036 186.75 590.76 179.373 584.212 178.338C577.665 177.303 571.326 183.003 570.054 191.069C568.781 199.136 573.058 206.513 579.605 207.548C586.153 208.583 592.492 202.883 593.764 194.817Z" fill="#FFA88F"/>
<path d="M578.932 183.346C579.014 183.059 580.048 192.483 594.254 193.662C599.996 185.944 592.208 170.596 579.719 178.562C577.048 176.242 568.663 177.409 568.737 185.316C562.663 188.348 564.937 194.288 569.008 192.508C569.008 192.508 576.831 190.71 578.932 183.346Z" fill="#0D0D0D"/>
<path d="M592.973 196.321C594.34 196.321 595.449 195.227 595.449 193.878C595.449 192.528 594.34 191.435 592.973 191.435C591.605 191.435 590.496 192.528 590.496 193.878C590.496 195.227 591.605 196.321 592.973 196.321Z" fill="#FFA88F"/>
<path d="M621.887 259.7L618.981 254.372L624.889 251.916C626.144 255.951 626.222 257.042 626.222 257.042C627.706 261.842 623.492 262.513 621.887 259.7Z" fill="#FFA88F"/>
<path d="M608.874 234.988L589.481 220.276C581.941 212.107 593.253 205.088 598.805 209.675C598.805 209.675 615.411 223.423 617.149 227.898C618.313 230.894 622.348 243.745 624.889 251.916L618.981 254.372L608.874 234.988Z" fill="#02A659"/>
<path d="M601.284 237.691C601.284 237.691 612.643 244.415 614.687 253.828C616.732 263.241 614.906 293.61 614.906 293.61L641.507 338.84L636.01 342.969C636.01 342.969 601.057 304.48 596.286 294.619C593.846 282.964 590.606 240.38 590.606 240.38L601.284 237.691Z" fill="#024263"/>
<path d="M584.389 245.239L561.552 349.621C561.965 351.218 567.112 352.427 568.096 351.109C568.096 351.109 606.775 263.278 606.751 249.604C606.728 235.931 587.653 235.45 584.389 245.239Z" fill="#024263"/>
<path d="M568.095 351.109C556.962 349.875 557.161 343.166 550.558 346.449C549.963 348.355 555.669 356.423 567.266 356.423C568.78 354.005 568.095 351.109 568.095 351.109Z" fill="white"/>
<path d="M578.074 221.979C578.762 224.864 579.602 227.71 580.593 230.505C581.919 234.293 583.29 237.548 584.513 241.328C584.974 242.758 585.414 244.263 585.822 245.9C585.826 245.919 585.831 245.938 585.835 245.956C585.835 245.956 595.039 247.297 604.464 242.174C604.236 240.669 604.052 239.217 603.903 237.814C602.182 221.706 604.873 212.24 595.518 207.051C590.32 208.375 588.811 209.122 583.617 210.399C581.537 213.18 578.39 218.073 578.074 221.979Z" fill="#02A659"/>
<path d="M583.616 210.399C583.66 210.088 581.937 197.723 581.937 197.723L590.473 194.701L595.518 207.052C591.532 208.102 587.572 209.242 583.616 210.399Z" fill="#FFA88F"/>
<path d="M580.838 261.497C591.981 269.66 615.339 262.72 615.339 262.72C617.743 248.638 603.905 237.814 603.905 237.814H603.903L589.01 240.513L584.513 241.328L584.48 241.334L582.704 251.164L580.838 261.497Z" fill="#02A659"/>
<path d="M584.48 241.334L582.704 251.164C586.819 244.216 596.374 228.073 600.611 220.918C593.012 218.42 585.732 224.391 580.593 230.505C581.919 234.293 583.29 237.548 584.513 241.328L584.48 241.334Z" fill="#026636"/>
<path d="M589.053 251.021L589.431 250.96C589.37 250.588 583.435 213.637 592.559 210.578C594.742 209.846 596.553 209.962 598.096 210.935C602.854 213.932 603.992 224.429 605.093 234.581C605.623 239.464 606.123 244.076 607.012 247.722L607.384 247.633C606.501 244.012 606.002 239.411 605.474 234.541C604.363 224.301 603.215 213.711 598.302 210.616C596.677 209.593 594.704 209.46 592.435 210.22C588.455 211.555 586.68 218.843 587.16 231.882C587.515 241.536 589.038 250.927 589.053 251.021Z" fill="black"/>
<path d="M590.015 263.662C593.449 265.636 608.972 262.951 611.07 260.02C610.688 255.152 609.429 251.002 607.392 247.491C601.084 247.31 595.014 248.413 589.153 250.646C588.347 254.305 588.714 259.953 590.015 263.662Z" fill="#DB6704"/>
<path d="M607.392 247.49C607.392 247.49 607.464 254.875 599.004 256.286C590.544 257.697 589.153 250.645 589.153 250.645C589.153 250.645 597.453 247.052 607.392 247.49Z" fill="#ED8934"/>
<path d="M599.998 258.736C600.105 258.718 600.208 258.679 600.3 258.622C600.393 258.564 600.473 258.488 600.536 258.399C600.599 258.311 600.644 258.21 600.668 258.104C600.693 257.998 600.696 257.888 600.678 257.78L600.154 254.832C600.113 254.615 599.988 254.423 599.807 254.297C599.625 254.172 599.402 254.123 599.185 254.161C599.077 254.179 598.974 254.218 598.882 254.276C598.79 254.334 598.71 254.409 598.647 254.498C598.584 254.587 598.539 254.687 598.514 254.793C598.49 254.9 598.487 255.01 598.505 255.117L599.029 258.066C599.07 258.283 599.194 258.475 599.376 258.6C599.557 258.726 599.781 258.775 599.998 258.736Z" fill="white"/>
<path d="M548.261 243.288L554.055 241.308L555.571 247.453C551.333 248.032 550.229 247.934 550.229 247.934C545.19 248.614 545.189 244.403 548.261 243.288Z" fill="#FFA88F"/>
<path d="M575.063 234.556L588.304 214.262C595.927 206.167 603.961 216.703 599.791 222.544C599.791 222.544 585.593 242.768 580.838 243.747C577.655 244.402 564.152 246.282 555.571 247.454L554.055 241.308L575.063 234.556Z" fill="#02A659"/>
<path d="M645.055 342.501L641.297 357.002H629.416C628.794 354.495 630.766 351.36 635.824 350.68C635.824 350.68 636.859 346.788 635.435 342.96C634.011 339.132 641.297 338.556 641.297 338.556L645.055 342.501Z" fill="white"/>
<path d="M552.475 241.769C552.475 241.769 544.588 238.884 544.134 240.023C543.681 241.162 544.006 242.42 544.006 242.42C544.006 242.42 538.298 241.89 537.915 243.188C537.531 244.486 538.109 253.242 553.879 247.606C551.542 244.051 552.475 241.769 552.475 241.769Z" fill="#FFA88F"/>
<path d="M621.565 259.109C621.549 259.224 622.584 262.547 624.561 264.065C626.538 265.584 629.579 266.229 629.579 266.229C631.527 266.225 636.102 261.65 632.673 260.703C629.856 259.925 628.494 259.487 628.494 259.487L626.373 257.612C626.373 257.612 622.166 254.711 621.565 259.109Z" fill="#FFA88F"/>
<path d="M284.312 341.464H239.902V344.81H284.312V341.464Z" fill="#CEFFFF"/>
<path d="M666 356.693H22.417V357.606H666V356.693Z" fill="#027F99"/>
<path d="M456.093 157.391C451.162 157.353 441.44 157.306 423.4 157.306C420.598 157.306 418.322 155.065 418.322 152.3V143.8C418.322 141.035 420.594 138.794 423.397 138.794H455.539C458.342 138.794 460.614 141.035 460.614 143.8V152.962C460.61 153.551 460.49 154.133 460.26 154.675C460.03 155.217 459.695 155.708 459.275 156.119C458.855 156.531 458.357 156.856 457.811 157.074C457.265 157.292 456.681 157.4 456.093 157.391Z" fill="white"/>
<path d="M425.968 149.793C426.92 149.793 427.692 149.032 427.692 148.093C427.692 147.154 426.92 146.393 425.968 146.393C425.017 146.393 424.245 147.154 424.245 148.093C424.245 149.032 425.017 149.793 425.968 149.793Z" fill="#027273"/>
<path d="M434.968 149.793C435.92 149.793 436.692 149.032 436.692 148.093C436.692 147.154 435.92 146.393 434.968 146.393C434.017 146.393 433.245 147.154 433.245 148.093C433.245 149.032 434.017 149.793 434.968 149.793Z" fill="#027273"/>
<path d="M443.968 149.793C444.919 149.793 445.691 149.032 445.691 148.093C445.691 147.154 444.919 146.393 443.968 146.393C443.016 146.393 442.244 147.154 442.244 148.093C442.244 149.032 443.016 149.793 443.968 149.793Z" fill="#027273"/>
<path d="M452.968 149.793C453.919 149.793 454.691 149.032 454.691 148.093C454.691 147.154 453.919 146.393 452.968 146.393C452.016 146.393 451.244 147.154 451.244 148.093C451.244 149.032 452.016 149.793 452.968 149.793Z" fill="#027273"/>
<path d="M443.217 154.059V161.787L433.245 154.349L443.217 154.059Z" fill="white"/>
<path d="M365.517 34.4446C368.472 34.4446 370.868 32.081 370.868 29.1654C370.868 26.2498 368.472 23.8862 365.517 23.8862C362.562 23.8862 360.166 26.2498 360.166 29.1654C360.166 32.081 362.562 34.4446 365.517 34.4446Z" fill="white"/>
<path d="M390.794 30.2042L394.224 29.9207C393.915 12.1149 379.282 -1.13629 361.281 0.0770871L361.293 3.47268C377.402 2.41492 390.492 14.2706 390.794 30.2042Z" fill="white"/>
<path d="M383.672 30.7929L387.102 30.5095C386.808 16.5915 375.379 6.23814 361.306 7.12857L361.317 10.5242C373.499 9.78889 383.385 18.7472 383.672 30.7929Z" fill="white"/>
<path d="M376.777 31.3626L380.207 31.0791C379.927 20.9229 371.602 13.3767 361.328 13.955L361.34 17.3505C369.722 16.9263 376.506 23.0784 376.777 31.3626Z" fill="white"/>
</g>
<defs>
<clipPath id="clip0_1806_906">
<rect width="666" height="358" fill="white"/>
</clipPath>
</defs>
</svg>
